<svg width="208" height="56" viewBox="0 0 208 56" fill="none" xmlns="http://www.w3.org/2000/svg">
<g clip-path="url(#clip0_2124_319)">
<path d="M18.3078 42.8436C18.6481 44.4625 17.5422 46.0206 16.065 46.3322C8.6944 47.9207 2.36794 30.1965 1.09955 25.1194C0.179194 21.38 -1.87033 10.4354 4.06943 9.11291C7.53429 8.35287 8.81041 10.1922 9.68436 12.6243C12.2289 9.73615 14.8817 6.99999 19.089 6.20954C25.2762 5.06188 28.9345 9.56894 29.762 14.4028C31.1541 23.0141 23.5825 34.7796 14.6032 37.4245C15.5158 40.8599 17.8825 40.8295 18.3078 42.8436ZM20.3496 19.9967C22.724 12.8675 17.4803 11.6895 14.7888 19.3507C13.4277 23.1585 13.0874 27.7416 13.157 30.3409C16.0031 28.1444 19.1045 24.0098 20.3496 19.9967Z" fill="#009CDE"/>
<path d="M50.7819 28.5548C52.5917 28.3268 54.3086 29.1933 54.5175 30.9338C54.85 33.8067 47.6805 35.8512 45.0278 36.2465C30.3021 38.4886 27.8581 11.5299 42.5451 9.36374C47.2784 8.7101 51.8724 10.7546 52.3674 14.9349C52.5762 16.5157 53.1099 22.0185 41.4082 25.9251C41.9496 28.7828 43.2025 30.3181 45.3758 30.0217C47.2165 29.7709 48.8097 28.8056 50.7819 28.5548ZM41.0292 21.6232C44.4632 19.6547 48.3379 13.9544 44.0533 14.5168C41.8027 14.8284 40.805 18.317 41.0292 21.6232Z" fill="#009CDE"/>
<path d="M76.6628 6.22475C78.7278 6.09555 79.9884 7.48643 80.0889 9.28773C80.4292 15.8393 76.5622 23.5537 77.0649 30.6069C77.1732 32.2562 78.0704 33.8599 78.1709 35.3572C78.2714 36.9077 76.8638 38.4506 75.2087 38.5646C70.6147 38.899 69.6944 31.253 69.006 28.2356C68.5342 28.3268 68.0083 28.418 67.5288 28.4636C61.8056 28.9501 56.5619 28.038 55.804 21.6156C55.0151 15.2389 62.4321 7.76764 69.3927 7.24321C70.7849 7.13681 72.0455 7.44842 73.3603 7.90445C74.2497 7.0304 75.2629 6.30836 76.6628 6.22475ZM65.1545 20.2172C65.487 22.5505 68.0161 23.0825 69.3309 20.6656C69.8026 19.8219 70.3053 18.6287 70.6224 17.0478C71.3959 12.8143 68.2017 12.5559 66.1135 16.3637C65.402 17.5722 64.992 19.0695 65.1545 20.2172Z" fill="#009CDE"/>
<path d="M96.7784 11.3778C97.1728 9.11292 98.4412 8.18566 100.498 8.16286C105.618 8.12486 104.288 17.7166 104.358 20.8708C104.427 23.7742 105.812 27.9316 105.804 29.3377C105.796 30.9946 104.219 32.393 102.594 32.4007C99.029 32.4235 97.8612 28.6992 96.9021 26.1075C94.9222 28.4028 93.561 30.835 90.2431 30.949C84.1023 31.1694 81.6506 24.3138 81.3721 19.6015C81.2097 16.8046 81.6274 8.48208 85.7573 8.29967C87.6522 8.21607 89.0907 9.52334 89.1526 11.279C89.2222 13.0803 89.0134 14.9957 88.9206 16.9034C88.5107 26.4495 92.223 28.4104 95.3631 17.367C95.8735 15.5581 96.3762 13.4908 96.7784 11.3778Z" fill="#009CDE"/>
<path d="M124.613 25.6058C126.43 25.6819 127.977 26.8219 127.877 28.57C127.707 31.4582 120.297 32.279 117.629 32.2258C102.772 31.9826 105.015 5.00107 119.818 5.32028C124.582 5.46469 128.751 8.24645 128.519 12.4495C128.449 14.038 128.024 19.5559 115.843 21.456C115.881 24.367 116.856 26.0923 119.037 26.1531C120.901 26.2063 122.633 25.5146 124.613 25.6058ZM116.221 17.1466C119.942 15.7785 124.729 10.8078 120.421 10.6482C118.147 10.5722 116.57 13.848 116.221 17.1466Z" fill="#009CDE"/>
<path d="M138.532 37.797C138.339 40.2443 138.262 42.9957 135.091 42.7676C130.002 42.4256 132.005 20.0727 132.26 16.1661C132.368 14.4636 130.528 13.9088 130.659 11.7047C130.86 7.84365 137.256 5.95874 140.899 6.25516C147.403 6.74919 152.91 11.6743 152.237 17.6026C151.417 25.0206 144.565 26.3279 138.857 29.1249C138.741 31.9826 138.757 35 138.532 37.797ZM140.064 13.2856C139.886 14.8284 139.584 16.5689 139.391 20.4224C141.44 20.582 143.25 19.1759 143.521 16.1281C143.66 14.532 142.6 13.3844 140.899 13.2476C140.621 13.2552 140.342 13.2704 140.064 13.2856Z" fill="#009CDE"/>
<path d="M163.043 0.0227866C165.317 0.304003 166.315 1.85449 166.059 3.6938C165.031 11.1422 161.837 18.4082 161.001 24.9294C160.321 30.1965 162.386 30.4093 162.146 32.1498C161.898 33.9359 160.383 35.304 158.712 35.0988C153.654 34.4832 152.896 29.3833 152.997 25.5526C153.113 20.1715 154.675 10.253 158.07 4.12702C159.509 1.56567 161.171 -0.212827 163.043 0.0227866Z" fill="#009CDE"/>
<path d="M170.205 35.6612C166.291 35.0684 162.935 32.7579 163.515 28.4864C164.42 21.7296 171.295 20.4071 177.529 21.4332C177.985 20.3919 178.395 19.2899 178.588 18.1042C178.79 16.9185 178.975 15.8317 177.66 15.6189C175.843 15.3301 173.368 17.5342 170.97 17.177C169.23 16.9185 167.892 15.3681 168.117 13.7872C168.573 10.4962 175.827 9.41692 178.836 9.91855C185.789 11.051 186.841 15.5201 185.82 20.924C184.876 25.9479 182.819 30.7817 181.914 35.76C181.566 37.6373 180.483 39.165 178.302 38.7926C176.639 38.5114 175.851 36.9077 175.456 35.418C173.716 35.7448 171.929 35.9196 170.205 35.6612ZM172.1 30.4169C173.314 30.5993 175.688 30.6753 175.936 29.2465C176.191 27.7112 174.041 27.4679 173.043 27.5744C170.375 27.8784 169.725 30.0597 172.1 30.4169Z" fill="#009CDE"/>
<path d="M192.88 37.2877C192.455 39.3018 191.31 40.8523 188.936 40.3811C184.349 39.4918 186.414 27.7568 186.994 24.6938C187.513 21.988 188.154 15.6189 192.439 16.4321C194.574 16.8502 194.752 18.2182 195.293 19.7003C197.752 18.7655 200.243 18.3626 202.919 18.9403C211.449 20.8404 207.714 39.4994 202.857 42.3116C202.099 42.7524 201.155 42.8436 200.073 42.608C198.015 42.1444 197.018 39.8339 197.868 36.4745C198.278 34.8708 198.673 33.3659 198.982 31.9902C201.473 21.5928 194.798 25.7199 193.622 31.481C193.213 33.3659 193.282 35.3724 192.88 37.2877Z" fill="#009CDE"/>
<path d="M131.126 46.8263C131.126 48.0803 129.904 49.1292 128.318 49.1292C125.109 49.1292 118.527 47.8751 114.041 47.8295C110.166 47.7763 106.292 47.6775 102.417 47.6775C79.9804 47.6775 56.8323 48.9772 34.9527 53.7427C33.0656 54.1455 24.705 56 23.63 56C21.333 56 19.5 55.2475 19.5 53.1422C19.5 51.5385 21.5882 50.5353 23.1195 49.7372C45.0998 42.1216 89.5629 38.9142 120.569 42.9196C126.431 43.6721 131.126 44.8729 131.126 46.8263Z" fill="#009CDE"/>
</g>
<defs>
<clipPath id="clip0_2124_319">
<rect width="208" height="56" fill="white"/>
</clipPath>
</defs>
</svg>
